<?xml version="1.0"?><svg width="640" height="480" xmlns="http://www.w3.org/2000/svg">
 <metadata id="metadata3077">image/svg+xml</metadata>
 <g>
  <title>Layer 1</title>
  <path fill="#a02c2c" fill-rule="nonzero" d="m554.800232,957.736572a2.39796,2.83395 0 1 1-4.795898,0a2.39796,2.83395 0 1 14.795898,0z" id="path17563"/>
  <path fill="none" stroke="#000000" stroke-width="1.159" stroke-miterlimit="4" id="path17641" d="m10.64998,187.386948c255.578322,69.231491 608.671432,15.062531 753.643111,-63.971405"/>
  <path fill="none" stroke="#000000" stroke-width="1.159" stroke-miterlimit="4" d="m14.13791,177.795105c18.286269,4.953415 13.52814,24.098862 32.70085,27.824936c22.014717,4.278412 55.903122,-14.19194 78.819283,-11.728195c16.940697,1.82132 24.429878,25.953522 41.589149,27.07106c24.210052,1.576752 41.47554,-11.761246 65.601151,-11.999771c8.166122,-0.080688 38.102127,19.832474 46.204422,19.629654c15.977875,-0.399979 36.928375,-19.485886 52.376038,-20.600555c12.975616,-0.936279 37.063843,16.316544 49.591125,15.136703c10.571106,-0.99559 26.99173,-19.59761 37.066437,-20.914124c7.314453,-0.955811 35.420746,12.888351 42.469299,11.883423c10.731384,-1.530029 35.735413,-23.260086 45.429596,-25.069183c15.835602,-2.9552 34.64212,14.268539 48.013031,11.445267c10.881775,-2.297684 28.42688,-17.919296 37.707397,-22.518692c44.399536,-22.004395 43.39209,-5.586456 58.758484,-6.130981c17.656006,-0.625671 4.974426,-6.682922 45.839478,-25.794312c5.235596,-2.448532 34.726013,1.805511 44.055969,-0.825027c11.637939,-3.281265 18.365479,-29.092087 27.421448,-31.381599" id="path17643"/>
  <path fill="none" stroke="#000000" stroke-width="1px" id="path17647" d="m225.844009,298.516205z"/>
  <g id="g17661">
   <rect opacity="0.99" fill="#ffffaa" fill-rule="nonzero" id="rect17649" width="9.59183" height="12.207785" x="42.727238" y="205.213842"/>
   <path opacity="0.99" fill="#ffffaa" fill-rule="nonzero" id="path17651" d="m57.550983,221.345566c0,6.019791 -4.684799,10.899796 -10.463806,10.899796c-5.779007,0 -10.463821,-4.880005 -10.463821,-10.899796c0,-6.019821 4.684814,-10.899811 10.463821,-10.899811c5.779007,0 10.463806,4.87999 10.463806,10.899811z"/>
  </g>
  <g id="g17673">
   <rect transform="matrix(0.97277661,0.23174484,-0.23174484,0.97277661,94.379453,-128.63075) " opacity="0.99" fill="#ffffaa" fill-rule="nonzero" id="rect17675" width="9.59183" height="12.207785" x="149.98135" y="322.93176"/>
   <path opacity="0.99" fill="#ffffaa" fill-rule="nonzero" id="path17677" d="m176.12178,239.395004c-1.39505,5.855927 -7.083237,9.517395 -12.70491,8.178146c-5.621689,-1.339249 -9.04805,-7.172089 -7.653,-13.028015c1.395065,-5.855927 7.083267,-9.517395 12.704941,-8.178146c5.621689,1.339249 9.048035,7.172089 7.652969,13.028015z"/>
  </g>
  <g id="g17681">
   <rect opacity="0.99" fill="#ffffaa" fill-rule="nonzero" y="228.757421" x="277.291103" height="12.207785" width="9.59183" id="rect17683"/>
   <path opacity="0.99" fill="#ffffaa" fill-rule="nonzero" d="m292.114838,244.88913c0,6.019806 -4.684784,10.899811 -10.463806,10.899811c-5.778992,0 -10.463837,-4.880005 -10.463837,-10.899811c0,-6.019806 4.684845,-10.899811 10.463837,-10.899811c5.779022,0 10.463806,4.880005 10.463806,10.899811z" id="path17685"/>
  </g>
  <g id="g17689">
   <rect opacity="0.99" fill="#ffffaa" fill-rule="nonzero" y="223.525518" x="374.825359" height="12.207785" width="9.59183" id="rect17691"/>
   <path opacity="0.99" fill="#ffffaa" fill-rule="nonzero" d="m389.649109,239.657227a10.46382,10.89981 0 1 1-20.927643,0a10.46382,10.89981 0 1 120.927643,0z" id="path17693"/>
  </g>
  <g id="g17697">
   <rect transform="matrix(0.91860847,-0.39516892,0.39516892,0.91860847,193.52293,-22.367198) " opacity="0.99" fill="#ffffaa" fill-rule="nonzero" id="rect17699" width="9.59183" height="12.207785" x="149.98135" y="322.93176"/>
   <path opacity="0.99" fill="#ffffaa" fill-rule="nonzero" id="path17701" d="m478.901642,223.973541c2.378845,5.529846 0.003754,11.863937 -5.304871,14.147629c-5.308655,2.283676 -11.540588,-0.347839 -13.919434,-5.877686c-2.378845,-5.529846 -0.003754,-11.863953 5.304901,-14.147644c5.308624,-2.283676 11.540558,0.347855 13.919403,5.877701z"/>
  </g>
  <g id="g17705">
   <rect transform="matrix(0.91860847,-0.39516892,0.39516892,0.91860847,286.82528,-36.318952) " opacity="0.99" fill="#ffffaa" fill-rule="nonzero" y="322.93176" x="149.98135" height="12.207785" width="9.59183" id="rect17707"/>
   <path opacity="0.99" fill="#ffffaa" fill-rule="nonzero" d="m572.203979,210.021774c2.378845,5.529846 0.003784,11.863953 -5.304871,14.147629c-5.308655,2.283691 -11.540588,-0.347824 -13.919434,-5.87767c-2.378845,-5.529846 -0.003723,-11.863953 5.304932,-14.147644c5.308594,-2.283676 11.540527,0.347855 13.919373,5.877686z" id="path17709"/>
  </g>
  <g id="g17713">
   <rect transform="matrix(0.76864535,-0.63967517,0.63967517,0.76864535,409.97434,-4.1890945) " opacity="0.99" fill="#ffffaa" fill-rule="nonzero" id="rect17715" width="9.59183" height="12.207785" x="149.98135" y="322.93176"/>
   <path opacity="0.99" fill="#ffffaa" fill-rule="nonzero" id="path17717" d="m753.541504,151.008743c3.850708,4.62709 3.371399,11.374847 -1.070618,15.071533c-4.442017,3.696686 -11.164612,2.942444 -15.01532,-1.684647c-3.850708,-4.62709 -3.371338,-11.374847 1.070618,-15.071533c4.442017,-3.696686 11.164612,-2.942444 15.01532,1.684647z"/>
  </g>
  <g id="g17721">
   <rect transform="matrix(0.99589086,-0.09056153,0.09056153,0.99589086,472.28608,-134.97302) " opacity="0.99" fill="#ffffaa" fill-rule="nonzero" y="322.93176" x="149.98135" height="12.207785" width="9.59183" id="rect17723"/>
   <path opacity="0.99" fill="#ffffaa" fill-rule="nonzero" d="m667.120056,187.772202c0.545166,5.995071 -3.678406,11.279282 -9.433716,11.802643c-5.755249,0.523346 -10.862732,-3.912338 -11.407898,-9.90741c-0.545166,-5.995071 3.678467,-11.279282 9.433716,-11.802643c5.755249,-0.523346 10.862732,3.912338 11.407898,9.90741z" id="path17725"/>
  </g>
  <g id="g17731">
   <g id="g17755">
    <rect opacity="0.99" fill="#ffffaa" fill-rule="nonzero" y="175.566362" x="6.103909" height="12.207785" width="9.59183" id="rect17733"/>
    <path opacity="0.99" fill="#ffffaa" fill-rule="nonzero" d="m20.927654,190.826096c0,6.019806 -4.684814,10.899811 -10.463806,10.899811c-5.778991,0 -10.463806,-4.880005 -10.463806,-10.899811c0,-6.019806 4.684815,-10.899811 10.463806,-10.899811c5.778992,0 10.463806,4.880005 10.463806,10.899811z" id="path17735"/>
   </g>
   <rect opacity="0.99" fill="#ffffaa" fill-rule="nonzero" y="207.829793" x="224.972038" height="12.207785" width="9.59183" id="rect17739"/>
   <path opacity="0.99" fill="#ffffaa" fill-rule="nonzero" d="m240.667755,223.961502a10.46382,10.89981 0 1 1-20.927612,0a10.46382,10.89981 0 1 120.927612,0z" id="path17741"/>
   <rect opacity="0.99" fill="#ffffaa" fill-rule="nonzero" transform="matrix(0.99998769,-0.00496101,0.00496101,0.99998769,0,0) " y="190.01289" x="502.011736" height="12.207785" width="9.59183" id="rect17745"/>
   <path opacity="0.99" fill="#ffffaa" fill-rule="nonzero" d="m517.85614,204.449997a10.463692,10.899675 0 1 1-20.927399,0.103836a10.463692,10.899675 0 1 120.927399,-0.103836z" id="path17747"/>
   <g id="g17761">
    <rect transform="matrix(0.87754963,-0.47948582,0.47948582,0.87754963,210.06816,-63.607654) " opacity="0.99" fill="#ffffaa" fill-rule="nonzero" id="rect17763" width="9.59183" height="12.207785" x="320.970242" y="417.352323"/>
    <path opacity="0.99" fill="#ffffaa" fill-rule="nonzero" id="path17765" d="m712.175415,155.022446c2.886414,5.282684 1.115173,11.811417 -3.956238,14.582367c-5.07135,2.770966 -11.5224,0.734818 -14.408813,-4.547867c-2.886414,-5.282669 -1.115173,-11.811417 3.956238,-14.582382c5.07135,-2.77095 11.5224,-0.734802 14.408813,4.547882z"/>
   </g>
  </g>
  <g id="g17769">
   <rect transform="matrix(0.91860847,-0.39516892,0.39516892,0.91860847,97.60462,121.51026) " opacity="0.99" fill="#ffffaa" fill-rule="nonzero" id="rect17771" width="9.59183" height="12.207785" x="-19.477594" y="72.524719"/>
   <path opacity="0.99" fill="#ffffaa" fill-rule="nonzero" id="path17773" d="m128.363815,204.789871a9.612154,10.012657 0 1 1-19.224297,8.269943a9.612154,10.012657 0 1 119.224297,-8.269943z"/>
   <rect transform="matrix(0.91860847,-0.39516892,0.39516892,0.91860847,97.60462,121.51026) " opacity="0.99" fill="#ffffaa" fill-rule="nonzero" y="169.30688" x="172.40276" height="12.207785" width="9.59183" id="rect17777"/>
   <path opacity="0.99" fill="#ffffaa" fill-rule="nonzero" d="m342.87204,217.869644a9.612154,10.012657 0 1 1-19.224304,8.269943a9.612154,10.012657 0 1 119.224304,-8.269943z" id="path17779"/>
   <path opacity="0.99" fill="#ffffaa" fill-rule="nonzero" d="m128.363815,204.789871a9.612154,10.012657 0 1 1-19.224297,8.269943a9.612154,10.012657 0 1 119.224297,-8.269943z" id="path17781"/>
   <rect opacity="0.99" fill="#ffffaa" fill-rule="nonzero" transform="matrix(0.9999618572747532,-0.008734100328293526,0.008734100328293526,0.9999618572747532,97.60462,121.51026) " id="rect17783" width="9.59183" height="12.207785" x="319.95297" y="83.475189"/>
   <path opacity="0.99" fill="#ffffaa" fill-rule="nonzero" id="path17785" d="m433.238556,218.189392a10.463421,10.899394 0 1 1-20.926849,0.182785a10.463421,10.899394 0 1 120.926849,-0.182785z"/>
   <rect opacity="0.99" fill="#ffffaa" fill-rule="nonzero" y="48.505905" x="509.4863" height="12.207785" width="9.59183" id="rect17787" transform="matrix(0.9999618572747532,-0.008734100328293526,0.008734100328293526,0.9999618572747532,97.60462,121.51026) "/>
   <path opacity="0.99" fill="#ffffaa" fill-rule="nonzero" d="m622.459229,181.56604a10.463421,10.899394 0 1 1-20.92688,0.182785a10.463421,10.899394 0 1 120.92688,-0.182785z" id="path17789"/>
  </g>
 </g>
</svg>